<svg width="49" height="56" viewBox="0 0 49 56" fill="none" xmlns="http://www.w3.org/2000/svg">
<path d="M37.7987 6.7319C39.3611 8.70885 40.4336 10.9214 41.016 13.3694C41.3865 14.9262 41.5548 16.4248 41.5208 17.8652C41.4519 20.7307 40.5631 23.6178 39.1281 26.1492C37.076 29.7704 33.4784 32.6103 29.5223 33.7888C25.6822 34.9329 21.861 34.7678 18.0587 33.2934C17.5498 33.0959 17.0633 32.8679 16.5991 32.6094C12.2011 30.1575 9.36997 26.5288 8.10568 21.7232C6.72156 16.4641 7.90471 11.0343 11.2287 6.76964C11.8973 5.88778 12.5578 5.13392 13.21 4.50806C15.0039 2.78585 17.1278 1.54043 19.5815 0.771786C22.8618 -0.256633 26.148 -0.257261 29.4402 0.7699C32.3179 1.66717 34.8115 3.34661 36.8505 5.56856C37.1901 5.93904 37.5062 6.32682 37.7987 6.7319Z" fill="white"/>
<path d="M38.2214 22.9989C36.9458 25.7775 34.8352 28.1598 32.1594 29.6864C27.9296 32.0999 22.6045 32.4235 18.1587 30.312C14.8149 28.724 11.9052 25.8548 10.5116 22.3771C9.33413 19.4403 9.13537 16.4296 9.91533 13.3449C10.0757 12.7096 10.2707 12.0781 10.5003 11.4504C10.8881 10.387 11.4391 9.419 12.0627 8.46606C14.8282 4.23822 19.4664 1.79926 24.533 1.73133C27.9712 1.6851 31.2319 2.88241 33.885 5.07511C36.1306 6.93287 38.0034 9.45486 38.813 12.2146C38.9897 12.8166 39.1489 13.4833 39.2904 14.2148C39.6583 16.1157 39.6407 17.9986 39.2375 19.8636C38.9866 21.0247 38.6479 22.0698 38.2214 22.9989Z" fill="#4C4C4C"/>
<path d="M25.9812 28.1391C21.6128 28.6608 17.2869 26.6502 14.9215 22.9517C13.5779 20.8502 12.9763 18.5512 13.1166 16.0547C13.3666 11.6004 16.1848 7.699 20.3532 6.04692C21.7786 5.48208 23.2973 5.22167 24.9094 5.2657C27.1361 5.32797 29.3279 6.11863 31.1394 7.39425C33.8416 9.29729 35.4804 12.3146 35.8626 15.6046C36.0318 17.0626 35.9236 18.4722 35.538 19.8334C34.9776 21.8104 33.9988 23.4926 32.6018 24.8802C30.8092 26.6596 28.4825 27.8409 25.9812 28.1391Z" fill="white"/>
<path d="M48.9971 9.00465C48.9399 10.1255 48.8392 11.2467 48.6952 12.3682C48.5744 13.3092 48.4565 14.1977 48.3414 15.0336C48.2332 15.8199 47.9945 17.0213 47.6253 18.6378C47.3799 19.7068 47.0676 20.8626 46.7638 21.9429C45.5722 26.1811 43.8465 30.1939 41.885 33.9849C41.2783 35.1576 40.5782 36.3191 39.897 37.4824C39.2724 38.5486 38.6214 39.5817 37.9496 40.6101C36.5853 42.7028 35.133 44.6609 33.5925 46.4844C31.552 48.9004 29.31 51.1334 26.8663 53.1833C26.0693 53.8519 25.2652 54.513 24.4538 55.1665C24.4298 55.0961 24.4302 55.0407 24.4547 55.0005C24.4666 54.9803 24.4811 54.9781 24.4981 54.9939C24.5132 55.0071 24.5176 55.025 24.5113 55.0476C24.5075 55.0615 24.5069 55.0615 24.5094 55.0476C24.5233 54.9879 24.5094 54.9435 24.4679 54.9146C24.444 54.8976 24.4314 54.8747 24.4302 54.8457C24.4289 54.8149 24.4204 54.7863 24.4047 54.7599C24.3921 54.7397 24.3905 54.7187 24.4 54.6967C24.4063 54.6816 24.416 54.6709 24.4292 54.6646C24.477 54.6419 24.4755 54.6372 24.4245 54.6504C24.4144 54.6536 24.4053 54.6523 24.3971 54.6466C24.3619 54.6246 24.3544 54.5957 24.3745 54.5598C24.4015 54.512 24.394 54.473 24.3519 54.4429C24.3116 54.4145 24.31 54.384 24.3471 54.3513C24.3673 54.3343 24.3899 54.3249 24.4151 54.323C24.4528 54.3205 24.4688 54.3004 24.4632 54.2626C24.4569 54.2192 24.4632 54.1777 24.4821 54.1381C24.4883 54.1257 24.4966 54.1148 24.5066 54.106C24.5393 54.0777 24.5478 54.0444 24.5321 54.006C24.5182 53.9714 24.5292 53.9488 24.5651 53.9381C24.6418 53.9154 24.6764 53.8601 24.6689 53.772C24.6664 53.7406 24.6525 53.7343 24.6274 53.7532C24.5424 53.8173 24.4578 53.8352 24.3736 53.8069C25.5032 52.8949 26.2335 52.2957 26.5644 52.0096C27.2972 51.3768 28.1765 50.5745 29.2024 49.6027C30.0126 48.8347 30.9026 47.8924 31.8725 46.7759C34.1602 44.1429 36.2189 41.3502 38.0487 38.3976C38.7563 37.255 39.4451 36.0964 40.0848 34.9114C40.5452 34.0603 41.0302 33.198 41.4406 32.3526C42.3621 30.4549 43.1207 28.761 43.7163 27.2709C44.8152 24.5221 45.7489 21.5136 46.5176 18.2453C46.6484 17.6874 46.7733 17.0697 46.8922 16.3923C47.2796 14.1851 47.5652 12.0339 47.7489 9.93872C47.7507 9.91608 47.7423 9.89815 47.7234 9.88494C47.2277 9.55283 46.716 9.26192 46.1883 9.0122C44.5806 8.25079 42.836 7.68846 41.0783 7.25068L41.0556 5.91279C41.0544 5.86058 41.0795 5.83951 41.1311 5.84958C42.5527 6.13955 43.9053 6.52229 45.1891 6.99782C46.5415 7.49851 47.7995 8.12436 48.9631 8.87539C48.9946 8.89615 49.0059 8.93924 48.9971 9.00465Z" fill="#4C4C4C"/>
<path d="M7.55749 6.99418C7.15178 7.0879 6.76054 7.19232 6.38377 7.30742C4.68295 7.82635 3.02333 8.54341 1.4049 9.45861C1.3766 9.47434 1.3593 9.49824 1.35301 9.53032C1.34043 9.59196 1.33571 9.65392 1.33886 9.71619C1.53133 13.7053 2.12543 17.5573 3.12114 21.2722C3.76587 23.6794 4.44582 25.8089 5.16099 27.6607C5.81453 29.354 6.508 30.9762 7.24142 32.5273C8.18932 34.5332 9.36808 36.6815 10.7777 38.9724C11.6891 40.4524 12.5401 41.7494 13.3308 42.8634C14.1988 44.0861 15.1662 45.3413 16.233 46.6289C18.5106 49.3773 21.2175 51.7785 24.1462 53.8731C24.2254 53.9297 24.3037 53.9294 24.3811 53.8722C24.5465 53.7495 24.7013 53.6199 24.8453 53.4834C24.9296 53.5118 25.0142 53.4938 25.0991 53.4297C25.1243 53.4108 25.1381 53.4171 25.1406 53.4485C25.1482 53.5366 25.1136 53.592 25.0368 53.6146C25.001 53.6253 24.99 53.6479 25.0038 53.6825C25.0195 53.7209 25.0111 53.7542 24.9783 53.7825C24.9684 53.7913 24.96 53.8022 24.9538 53.8146C24.9349 53.8542 24.9287 53.8958 24.9349 53.9392C24.9406 53.9769 24.9246 53.997 24.8868 53.9995C24.8617 54.0014 24.839 54.0109 24.8189 54.0278C24.7818 54.0606 24.7834 54.0911 24.8236 54.1194C24.8658 54.1496 24.8733 54.1886 24.8463 54.2364C24.8261 54.2722 24.8337 54.3011 24.8689 54.3232C24.8771 54.3288 24.8862 54.3301 24.8963 54.3269C24.9472 54.3137 24.9488 54.3184 24.901 54.3411C24.8878 54.3474 24.878 54.3581 24.8717 54.3732C24.8623 54.3952 24.8639 54.4163 24.8764 54.4364C24.8922 54.4628 24.9007 54.4914 24.9019 54.5222C24.9032 54.5512 24.9158 54.5741 24.9397 54.5911C24.9812 54.6201 24.995 54.6644 24.9812 54.7242C24.9787 54.738 24.9793 54.738 24.9831 54.7242C24.9894 54.7015 24.9849 54.6836 24.9699 54.6704C24.9529 54.6546 24.9384 54.6569 24.9265 54.677C24.9019 54.7172 24.9016 54.7726 24.9255 54.843L24.4104 55.2497C24.3817 55.2723 24.3465 55.2852 24.31 55.2864C24.2735 55.2876 24.2376 55.277 24.2075 55.2563C22.7149 54.2222 21.4355 53.2146 19.9212 51.9229C19.4526 51.5228 18.9839 51.1011 18.5153 50.6577C17.9549 50.1268 17.4445 49.6123 16.984 49.1141C14.9863 46.9509 13.1978 44.7035 11.6183 42.3718C10.0571 40.0652 8.48401 37.4285 6.89892 34.4615C6.12808 33.0179 5.50254 31.5196 4.85246 30.0317C4.47758 29.175 3.93821 27.7632 3.23436 25.7963C2.99974 25.1409 2.65756 24.0669 2.20782 22.5743C2.01032 21.9201 1.84709 21.3122 1.71815 20.7505C1.47598 19.6988 1.25205 18.6832 1.04637 17.7039C0.914909 17.0749 0.790368 16.4305 0.672744 15.7707C0.260118 13.4509 0.0358786 11.1031 2.54989e-05 8.7274C-0.000603504 8.69595 0.0104046 8.66922 0.0330487 8.6472C0.127399 8.556 0.226152 8.4802 0.329309 8.41982C0.980955 8.03801 1.66059 7.68042 2.36822 7.34705C2.6324 7.23069 2.90256 7.11212 3.17869 6.99135C3.45671 6.86995 3.72844 6.76208 3.99388 6.66773C4.42223 6.51488 4.86379 6.3592 5.31856 6.20069C5.91988 5.99061 6.63317 5.78618 7.45842 5.58742C7.46677 5.58545 7.47545 5.58537 7.48383 5.58718C7.49221 5.58899 7.50007 5.59266 7.50685 5.5979C7.51364 5.60315 7.51916 5.60984 7.52303 5.6175C7.52689 5.62515 7.52899 5.63357 7.52919 5.64214L7.55749 6.99418Z" fill="#4C4C4C"/>
<path d="M17.8105 24.5056C15.4725 22.6007 14.0846 19.2852 14.2941 16.2547C14.3922 14.8385 14.8168 13.2487 15.5216 11.9778C16.9035 9.4819 18.9742 7.80844 21.7336 6.9574C23.4892 6.41646 25.2567 6.38721 27.0361 6.86965C28.5646 7.28385 29.7902 7.92826 31.0168 8.91423C33.3925 10.8229 34.6209 13.5525 34.7257 16.5811C34.7955 18.6229 34.1511 20.641 33.0613 22.3969C30.9205 25.8492 26.6804 27.5965 22.6847 26.8172C20.8996 26.4694 19.2749 25.6988 17.8105 24.5056Z" fill="url(#paint0_linear_32_2)"/>
<path d="M11.2286 6.67531C7.90466 10.9399 6.7215 16.3698 8.10562 21.6289C9.36992 26.4345 12.2011 30.0632 16.599 32.515C17.0632 32.7736 17.5498 33.0016 18.0586 33.1991C21.861 34.6735 25.6822 34.8386 29.5222 33.6944C33.4783 32.516 37.0759 29.676 39.128 26.0549C40.5631 23.5235 41.4519 20.6363 41.5208 17.7709C41.5547 16.3305 41.3865 14.8319 41.016 13.2751C40.4335 10.827 39.3611 8.61452 37.7986 6.63757C37.7923 6.59165 37.8027 6.55517 37.8298 6.52812C37.8549 6.50233 37.8854 6.49038 37.9213 6.49227C37.9546 6.49478 37.9867 6.48787 38.0175 6.47151C38.0463 6.45625 38.0791 6.45094 38.1109 6.45642L41.3613 7.02157C43.119 7.45936 44.8636 8.02169 46.4713 8.7831C46.9991 9.03281 47.5107 9.32372 48.0064 9.65584C48.0253 9.66905 48.0338 9.68697 48.0319 9.70961C47.8482 11.8048 47.5626 13.956 47.1752 16.1632C47.0563 16.8406 46.9314 17.4583 46.8006 18.0162C46.032 21.2845 45.0982 24.293 43.9993 27.0418C43.4037 28.5319 42.6451 30.2258 41.7236 32.1235C41.3132 32.9689 40.8282 33.8312 40.3678 34.6823C39.7281 35.8673 39.0393 37.0259 38.3317 38.1685C36.5019 41.1211 34.4432 43.9138 32.1555 46.5468C31.1856 47.6633 30.2956 48.6056 29.4854 49.3736C28.4595 50.3454 27.5802 51.1477 26.8474 51.7804C26.5165 52.0666 25.7863 52.6658 24.6566 53.5778C24.5125 53.7143 24.3578 53.8439 24.1924 53.9665C24.115 54.0238 24.0367 54.0241 23.9574 53.9675C21.0288 51.8729 18.3219 49.4717 16.0443 46.7233C14.9775 45.4357 14.0101 44.1805 13.142 42.9577C12.3514 41.8438 11.5004 40.5468 10.5889 39.0667C9.17933 36.7759 8.00058 34.6275 7.05267 32.6217C6.31926 31.0705 5.62578 29.4483 4.97225 27.7551C4.25707 25.9033 3.57712 23.7738 2.93239 21.3666C1.93668 17.6517 1.34259 13.7997 1.15011 9.81057C1.14697 9.7483 1.15169 9.68634 1.16427 9.6247C1.17056 9.59262 1.18785 9.56872 1.21616 9.55299C2.83458 8.63779 4.49421 7.92073 6.19503 7.4018C6.5718 7.2867 6.96304 7.18228 7.36875 7.08856C8.40409 6.87785 9.44131 6.68443 10.4804 6.50831C10.7097 6.46962 10.9531 6.46585 11.1862 6.4583C11.1996 6.45784 11.213 6.46099 11.2248 6.46743C11.2366 6.47386 11.2465 6.48335 11.2535 6.4949C11.2604 6.50646 11.2641 6.51965 11.2642 6.53313C11.2643 6.5466 11.2608 6.55986 11.2541 6.57152C11.2421 6.59291 11.2337 6.6275 11.2286 6.67531Z" fill="url(#paint1_linear_32_2)"/>
<path d="M31.6366 16.7245C31.6366 18.6063 30.8891 20.411 29.5585 21.7416C28.2279 23.0722 26.4232 23.8197 24.5415 23.8197C22.6597 23.8197 20.8551 23.0722 19.5245 21.7416C18.1939 20.411 17.4464 18.6063 17.4464 16.7245C17.4464 14.8428 18.1939 13.0381 19.5245 11.7075C20.8551 10.3769 22.6597 9.62939 24.5415 9.62939C26.4232 9.62939 28.2279 10.3769 29.5585 11.7075C30.8891 13.0381 31.6366 14.8428 31.6366 16.7245Z" fill="white"/>
<path d="M28.7118 18.3672C28.1711 19.8164 26.8012 20.9278 25.267 21.1241C24.0304 21.2826 22.9227 21.0137 21.944 20.3174C20.9562 19.6145 20.2098 18.3643 20.0985 17.2152C20.035 16.556 20.1152 15.9235 20.3391 15.3178C20.8807 13.8497 21.8635 12.8901 23.2876 12.4391C24.0078 12.2108 24.7264 12.1863 25.4435 12.3655C26.7927 12.704 27.7862 13.4748 28.424 14.6781C29.075 15.9065 29.1709 17.1362 28.7118 18.3672Z" fill="#34BC93"/>
<defs>
<linearGradient id="paint0_linear_32_2" x1="24.5021" y1="6.5285" x2="24.5021" y2="27.0006" gradientUnits="userSpaceOnUse">
<stop stop-color="#34BC93"/>
<stop offset="1" stop-color="#2DA07E"/>
</linearGradient>
<linearGradient id="paint1_linear_32_2" x1="24.5906" y1="6.45432" x2="24.5906" y2="54.0097" gradientUnits="userSpaceOnUse">
<stop stop-color="#40CDA3"/>
<stop offset="1" stop-color="#185643"/>
</linearGradient>
</defs>
</svg>
