<svg width="504" height="238" xmlns="http://www.w3.org/2000/svg" preserveAspectRatio="xMidYMid meet" version="1.0">

 <g>
  <title>Layer 1</title>
  <g id="svg_6" fill="#202b33">
   <path id="svg_7" d="m54.12547,236.27771c-4,-1.1 -10.4,-3.7 -14.2,-6c-3.8,-2.2 -7.2,-4 -7.5,-4c-0.3,0 -0.6,2.2 -0.6,5c0,6.2 0,6.2 -18,5.8l-13.5,-0.3l-0.3,-79.4c-0.1,-43.7 0.1,-79.8 0.5,-80.2c0.5,-0.4 8.2,-0.9 17.3,-1l16.5,-0.4l0.5,28.7l0.5,28.7l4.5,-3.1c2.5,-1.7 7.4,-4.4 11,-6.1c5.7,-2.7 7.8,-3.2 16.6,-3.5c15.7,-0.6 26.7,3.4 39.2,14.3l6.2,5.4l7.3,-5.4c8.6,-6.5 19.2,-11.8 26.5,-13.4c19.1,-4.1 41.3,2 54.3,14.9c10.1,10 15,23.3 16.5,44.8l0.7,10.2l-40.1,0c-22.1,0 -40.3,0.4 -40.6,0.9c-1,1.5 5.2,9.9 9.2,12.6c2.3,1.5 7.3,3.3 11.9,4.2c7.4,1.6 8.5,1.6 16.7,0c4.9,-1 10.6,-2.7 12.8,-3.8l4,-2l5.1,4c2.9,2.3 7.4,6 10.1,8.4l4.9,4.3l-5.9,4.7c-13,10.3 -26.9,14.4 -45.8,13.4c-16.5,-0.9 -27.5,-5 -37.5,-14.3c-3.2,-3 -6.1,-5.4 -6.3,-5.4c-0.3,0 -2.7,2.1 -5.4,4.6c-14.5,13.4 -37,18.7 -57.1,13.4zm21.3,-29.9c6.1,-2.8 10.7,-7.3 13.9,-13.8c3.7,-7.5 4,-17.6 0.8,-23.8c-5.2,-9.9 -14.3,-15.6 -25.9,-16.3c-6.2,-0.4 -8,0 -13.4,2.4c-6.9,3.1 -12.9,9.5 -15,16c-1.7,5.1 -0.8,16 1.7,20.9c3.6,6.9 12,14 18.5,15.5c6.1,1.5 15.1,1 19.4,-0.9zm106,-38.4c1.3,-1.3 -1.9,-9.7 -5,-13.1c-12.4,-13.9 -34.3,-8 -39.6,10.6l-0.8,2.8l19.1,0.2c23.9,0.4 25.5,0.3 26.3,-0.5z"/>
   <path id="svg_8" d="m253.82547,237.17771c-2.5,-0.5 -7.7,-2.5 -11.7,-4.4c-8.2,-4.1 -13.8,-9.8 -18,-18.4c-3.9,-7.8 -4,-19.2 -0.3,-26.6c5.1,-10.4 14.7,-17.9 27.1,-21.1c10.3,-2.8 29.2,-2.4 39.7,0.8c5.1,1.6 8.2,2.1 8.2,1.4c-0.1,-3.9 -3.2,-13.1 -5.1,-15.3c-6.2,-6.7 -19.4,-8.6 -30.9,-4.3c-5.7,2.1 -6.5,2.2 -15.3,1.1c-13.2,-1.7 -13.5,-1.8 -15.9,-6.5c-1.1,-2.2 -3.4,-6 -5,-8.4c-1.7,-2.4 -2.8,-4.5 -2.6,-4.7c0.9,-0.8 17.5,-5.6 26.8,-7.7c14.2,-3.1 40.4,-3.4 49,-0.4c13.8,4.7 22.1,11.4 26.8,21.4l2.7,5.7l0.3,43.3l0.3,43.2l-15,0l-15,0l-0.7,-5l-0.7,-5l-3.1,2.3c-10.2,7.8 -27.4,11.4 -41.6,8.6zm34.7,-28.6c4.6,-2.7 10.3,-10.1 10.3,-13.4c0,-3.1 -16.3,-7.9 -26.5,-7.9c-11.8,0 -18.1,6.5 -15.5,15.9c1.8,6.8 7.7,9.3 19.8,8.6c5.6,-0.4 8.4,-1.1 11.9,-3.2z"/>
   <path id="svg_9" d="m346.02547,179.57771l0.3,-56.8l16.3,-0.3l16.2,-0.2l0,4.5l0,4.5l5.2,-4c13.9,-10.5 35.8,-9 46.3,3.2c3.7,4.4 4.5,4.6 7.1,1.7c1,-1.2 4.2,-3.7 7,-5.5c18.9,-12.2 45.3,-6.1 54.9,12.6c4,7.9 4.5,14.1 4.5,56.7l0,40.3l-17,0l-17,0l0,-38.5c0,-36.7 -0.1,-38.8 -2,-42.5c-5,-9.8 -19.1,-9.2 -24.3,1c-1.6,3.2 -1.7,7 -1.6,41.5l0.1,38l-17.1,0.3l-17.1,0.2l0,-37.7c0,-35.1 -0.2,-38.1 -2,-42c-4.7,-10.4 -17.3,-11.2 -22.8,-1.5c-2.2,3.9 -2.2,4.4 -2.2,42.6l0,38.6l-17.5,0l-17.5,0l0.2,-56.7z"/>
  </g>
  <g id="svg_10" fill="#121fe6">
   <path fill="#10b981" id="svg_11" d="m79.82547,116.87771c0,-0.8 4.9,-8.8 10.9,-17.8c12.7,-18.9 12.8,-16.6 -1.3,-24.7c-4.9,-2.8 -8.3,-5.2 -7.5,-5.5c0.8,-0.2 7.1,-1.1 14.2,-2.1c28.8,-3.9 32.2,-5.7 95.7,-51.9c9.1,-6.6 18.1,-13.1 20,-14.5c3.3,-2.4 -5.2,7 -16.1,17.9c-10.3,10.1 -40.1,41.3 -50.1,52.3l-10.8,11.8l0,5.9c0,3.3 0.5,10.5 1.1,16c0.6,5.6 0.9,10.3 0.7,10.6c-0.3,0.2 -3.8,-3.8 -7.9,-8.8c-4.1,-5.1 -7.8,-9.6 -8.3,-9.9c-0.5,-0.4 -7,3.4 -14.5,8.3c-18.1,12 -26.1,15.8 -26.1,12.4z"/>
  </g>
  <g fill-opacity="0.3" id="svg_13" fill="#121fe6">
   <path fill="#10b981" id="svg_12" d="m92.82547,119.87771c0,-0.8 4.9,-8.8 10.9,-17.8c12.7,-18.9 12.8,-16.6 -1.3,-24.7c-4.9,-2.8 -8.3,-5.2 -7.5,-5.5c0.8,-0.2 7.1,-1.1 14.2,-2.1c28.8,-3.9 32.2,-5.7 95.7,-51.9c9.1,-6.6 18.1,-13.1 20,-14.5c3.3,-2.4 -5.2,7 -16.1,17.9c-10.3,10.1 -40.1,41.3 -50.1,52.3l-10.8,11.8l0,5.9c0,3.3 0.5,10.5 1.1,16c0.6,5.6 0.9,10.3 0.7,10.6c-0.3,0.2 -3.8,-3.8 -7.9,-8.8c-4.1,-5.1 -7.8,-9.6 -8.3,-9.9c-0.5,-0.4 -7,3.4 -14.5,8.3c-18.1,12 -26.1,15.8 -26.1,12.4z"/>
  </g>
 </g>
</svg>